# xmcd CD database file
#
# Track frame offsets:
#	150
#	14263
#	34160
#	46330
#	61858
#	78698
#	96113
#	113538
#	126638
#	140913
#	159078
#	174955
#	209940
#	222518
#	229473
#	242323
#	252273
#	270573
#	288215
#	296725
#
# Disc length: 4356 seconds
#
# Revision: 0
# Processed by: cddbd v1.5.1PL0 Copyright (c) Steve Scherf et al.
# Submitted via: CDex 1.51
#
DISCID=2c110214
DTITLE=Cal Tjader - Plays Harold Arlen and West Sde Story
DYEAR=1960
DGENRE=Jazz
TTITLE0=Between the Devil and the Deep Blue Sea
TTITLE1=Ill Wind  (You're Blowing Me No Good)
TTITLE2=WHEN THE SUN COMES OUT
TTITLE3=HAPPINESS IS A THING CALL JOE
TTITLE4=I GOOTA RIGHT TO SING THE BLUES
TTITLE5=COME RAIN OR COME SHINE
TTITLE6=OVER THE RAINBOW
TTITLE7=OUT OF THIS WORLD
TTITLE8=LAST NIGHT WHEN WE WERE YOUNG
TTITLE9=THE MAN THAT GOT AWAY
TTITLE10=BLUES IN THE NIGHT
TTITLE11=PROLOGUE/THEJET SONG
TTITLE12=SOMETHING'S COMING
TTITLE13=MARIA INTERLUDE
TTITLE14=MARIA
TTITLE15=TONIGHT
TTITLE16=AMERICA
TTITLE17=COOL
TTITLE18=ONE HAND, ONE HEART
TTITLE19=I FEEL PRETTY/SOMEWHERE
EXTD=YEAR: 1960
EXTT0=
EXTT1=
EXTT2=
EXTT3=
EXTT4=
EXTT5=
EXTT6=
EXTT7=
EXTT8=
EXTT9=
EXTT10=
EXTT11=
EXTT12=
EXTT13=
EXTT14=
EXTT15=
EXTT16=
EXTT17=
EXTT18=
EXTT19=
PLAYORDER=
